/* XPM */
static char * coin_xpm[] = {
"32 32 243 2",
"  	c #413830",
". 	c #3D342C",
"+ 	c #3F3830",
"@ 	c #484037",
"# 	c #473E36",
"$ 	c #3B342D",
"% 	c #3B342B",
"& 	c #423C33",
"* 	c #423D34",
"= 	c #443C33",
"- 	c #40382E",
"; 	c #48433B",
"> 	c #41372E",
", 	c #3D342B",
"' 	c #3F382F",
") 	c #423B34",
"! 	c #3A3129",
"~ 	c #3E3730",
"{ 	c #47413A",
"] 	c #403730",
"^ 	c #3C332A",
"/ 	c #3A352B",
"( 	c #74A657",
"_ 	c #3B362D",
": 	c #443B30",
"< 	c #413C31",
"[ 	c #6EA352",
"} 	c #424A32",
"| 	c #3E392F",
"1 	c #3B402B",
"2 	c #475033",
"3 	c #709250",
"4 	c #7CAC5F",
"5 	c #6DA44F",
"6 	c #6F9554",
"7 	c #556838",
"8 	c #4B5E36",
"9 	c #404231",
"0 	c #3F352C",
"a 	c #3C3D2D",
"b 	c #729F57",
"c 	c #83B164",
"d 	c #82B16E",
"e 	c #709253",
"f 	c #6F894C",
"g 	c #73A953",
"h 	c #7FAB5D",
"i 	c #6F823D",
"j 	c #749D53",
"k 	c #77A65D",
"l 	c #526C3F",
"m 	c #3A322A",
"n 	c #678F4D",
"o 	c #75A858",
"p 	c #7AAA5D",
"q 	c #7A9E5E",
"r 	c #637D49",
"s 	c #6A8945",
"t 	c #78AE56",
"u 	c #82B661",
"v 	c #769D4C",
"w 	c #7B9251",
"x 	c #7C773C",
"y 	c #7E9A55",
"z 	c #435033",
"A 	c #383528",
"B 	c #6BA14D",
"C 	c #71A256",
"D 	c #74A458",
"E 	c #6DA459",
"F 	c #68A158",
"G 	c #6EA85A",
"H 	c #79A356",
"I 	c #7AA755",
"J 	c #667B3F",
"K 	c #606E37",
"L 	c #75A053",
"M 	c #74A558",
"N 	c #72A156",
"O 	c #455532",
"P 	c #6E9F53",
"Q 	c #72A159",
"R 	c #73A259",
"S 	c #6EA258",
"T 	c #679D52",
"U 	c #7BAE69",
"V 	c #95BB90",
"W 	c #5A6437",
"X 	c #659047",
"Y 	c #729D53",
"Z 	c #75A153",
"` 	c #78A755",
" .	c #8AB777",
"..	c #526137",
"+.	c #6F9855",
"@.	c #729F5A",
"#.	c #6A9852",
"$.	c #64954A",
"%.	c #80AF6C",
"&.	c #A8CDAC",
"*.	c #6F8A56",
"=.	c #5D8B3F",
"-.	c #72A256",
";.	c #94BD8A",
">.	c #8BB67A",
",.	c #81AD5D",
"'.	c #464037",
").	c #505832",
"!.	c #6D7942",
"~.	c #6C8949",
"{.	c #6B924F",
"].	c #65924C",
"^.	c #68964D",
"/.	c #6E9D52",
"(.	c #73A359",
"_.	c #5F7F42",
":.	c #5B8A3E",
"<.	c #689C4E",
"[.	c #94BD87",
"}.	c #91BA83",
"|.	c #7DAA57",
"1.	c #494E2D",
"2.	c #6C7139",
"3.	c #6B7836",
"4.	c #698237",
"5.	c #67883F",
"6.	c #6A964E",
"7.	c #6B974F",
"8.	c #5C8340",
"9.	c #5E9042",
"0.	c #659D4A",
"a.	c #78A851",
"b.	c #7DA951",
"c.	c #7BA853",
"d.	c #393427",
"e.	c #68763E",
"f.	c #6C7737",
"g.	c #6D803D",
"h.	c #6C813C",
"i.	c #698D46",
"j.	c #6A954E",
"k.	c #6A954D",
"l.	c #5F8D40",
"m.	c #639948",
"n.	c #6FA44F",
"o.	c #7CA951",
"p.	c #7CA851",
"q.	c #739D4D",
"r.	c #3C342C",
"s.	c #626D3B",
"t.	c #6D7539",
"u.	c #6F793B",
"v.	c #6E8040",
"w.	c #6B823F",
"x.	c #6A8D47",
"y.	c #6A8B43",
"z.	c #688339",
"A.	c #6A9D4C",
"B.	c #7AA750",
"C.	c #7AA64F",
"D.	c #78A24D",
"E.	c #6B924A",
"F.	c #3F3A31",
"G.	c #5E5D32",
"H.	c #6E6E37",
"I.	c #6E6C34",
"J.	c #707E40",
"K.	c #6C783B",
"L.	c #6D8845",
"M.	c #6B7A3A",
"N.	c #6C863F",
"O.	c #6E893F",
"P.	c #739C48",
"Q.	c #749E48",
"R.	c #739F4B",
"S.	c #67904D",
"T.	c #453C34",
"U.	c #5D4F2B",
"V.	c #716032",
"W.	c #6F6633",
"X.	c #717A3E",
"Y.	c #6E7138",
"Z.	c #708544",
"`.	c #6D7136",
" +	c #6F9349",
".+	c #6E9B46",
"++	c #6E9542",
"@+	c #6E9A43",
"#+	c #71A04E",
"$+	c #62884A",
"%+	c #3C332B",
"&+	c #5B492A",
"*+	c #755E33",
"=+	c #726F3A",
"-+	c #727C40",
";+	c #6F733B",
">+	c #738243",
",+	c #6D6934",
"'+	c #6E7D3E",
")+	c #6E9544",
"!+	c #6D9B44",
"~+	c #6D9B43",
"{+	c #71A150",
"]+	c #475B36",
"^+	c #503E27",
"/+	c #745832",
"(+	c #716536",
"_+	c #717A3F",
":+	c #6E773C",
"<+	c #757C40",
"[+	c #6C5A2F",
"}+	c #6C5F31",
"|+	c #6A823B",
"1+	c #6B9741",
"2+	c #6B9941",
"3+	c #6D9A4E",
"4+	c #3C362B",
"5+	c #3A312A",
"6+	c #634A2D",
"7+	c #6D4C2B",
"8+	c #6E5F33",
"9+	c #6D6434",
"0+	c #6E512C",
"a+	c #64301B",
"b+	c #6A4C29",
"c+	c #687335",
"d+	c #658B3B",
"e+	c #6A9441",
"f+	c #3D422D",
"g+	c #483F36",
"h+	c #3C352C",
"i+	c #60472B",
"j+	c #6D4D2C",
"k+	c #6A4C2D",
"l+	c #634A2F",
"m+	c #613C27",
"n+	c #663922",
"o+	c #6B5E30",
"p+	c #5E7E40",
"q+	c #3C3A2C",
"r+	c #433B34",
"s+	c #463F38",
"t+	c #3B332C",
"    . + @ # $ .   % +     .   .       . $ & * & . + + .     = - ",
"    ; . . # -     . > * #   ; # &     #   # .   + $ . . + . . , ",
"+ .   .   #     .   ' ) +   . .           . ! .   ~   &   ' .   ",
"=   . # { + .   .     { #   .   .   - %   . .     .   #   . + . ",
"  > #   &   . . . . { + > > = ; & .   +     .   . '           . ",
"+   .   # , - + + #   + . > ] -     *     #   $ = # . .   # # - ",
"    . #   . .   . + ! . .   + ^ . ~ # @   # { + = -     - #   > ",
".   # . * * + ~ # .   ' .     / ( _ .   + ~ & & #   : & +     . ",
"  . * . # *   * = ' # # . ' & < [ } . # * &   #   : -   .       ",
". . ~ # # #   # #   ' | 1 2 3 4 5 6 7 8 9 0 .   $ . .     : . . ",
"~ - . $ . & #     # a b c d e f g h i j k l > > ) .   . .     ; ",
"  . + ~ ~ + {   # m n o p q r s t u v w x y z >     . . # #   . ",
"    #   .   #   > A B C D E F G H I J K L M N ! . #   ' =   . . ",
"* . . .   . . { & O P Q R S T U V W X Y Z `  .' - = = . . . .   ",
"*   .     +   * # ..+.@.@.#.$.%.&.*.=.-.;.>.,.*   { '.. !     { ",
"#   .   ; {   .   ).!.~.{.].^./.(._.:.<.[.}.|..   . # & + . & # ",
". ,   # . . ,   * 1.2.3.4.5.6.7.7.8.9.0.a.b.c., # . { # & . . ! ",
"  . '   , ' .     d.e.f.g.h.i.j.k.l.m.n.o.p.q.- .   .   . ~   ' ",
"+     ! .   . '   r.s.t.u.v.w.x.y.z.A.B.C.D.E.)   '     * !   = ",
"    . + . !   -   F.G.H.I.J.K.L.M.N.O.P.Q.R.S.. . '     : # & - ",
"= .       . . + ; T.U.V.W.X.Y.Z.`. +.+++@+#+$+. . & # #   . ' # ",
"$ +   . { * .     %+&+*+=+-+;+>+,+'+)+!+~+{+]++ - # { * . ! # { ",
"+ )   :     * # . = ^+/+(+_+:+<+[+}+|+1+2+3+4++     . . -     . ",
"  .   . -         - 5+6+7+8+9+0+a+b+c+d+e+f+. =   . . '   @ ' ' ",
".     # #   . ) {   g+h+i+j+k+l+m+n+o+p+q+* & . + % '     # - = ",
"' : #     . .     . > .   - > ; &   r+* ] . . . .     # # * % . ",
"# =   .   # . s+# ,       > >   . t+# + .     *   .     - >     ",
"=   '   + . . .     * *   : ! -   !   ~     # = . '           ; ",
". . *         #             . - # .   . *   .     & #   . . & * ",
". . . .   #   ~     -   & . - . { #   - . . .       & . .   . ! ",
"'   # #       . . .   * # . + . . # #     ~ & + ' . . .   #   - ",
"  ) { -       - .     # # - * * + { ) g+  . #   # . * , # # : : "};
