/* XPM */
static char * exit_xpm[] = {
"32 32 175 2",
"  	c #413830",
". 	c #3D342C",
"+ 	c #3F3830",
"@ 	c #484037",
"# 	c #473E36",
"$ 	c #3B342D",
"% 	c #3B342B",
"& 	c #423C33",
"* 	c #423D34",
"= 	c #443C33",
"- 	c #40382E",
"; 	c #48433B",
"> 	c #41372E",
", 	c #463D35",
"' 	c #40372F",
") 	c #47423A",
"! 	c #443B34",
"~ 	c #3F3A31",
"{ 	c #3D342B",
"] 	c #3E372E",
"^ 	c #3E3731",
"/ 	c #38322A",
"( 	c #383029",
"_ 	c #332B24",
": 	c #312A23",
"< 	c #352D26",
"[ 	c #362F28",
"} 	c #3A322A",
"| 	c #3D342D",
"1 	c #3C332B",
"2 	c #3A3129",
"3 	c #3E3730",
"4 	c #3F382F",
"5 	c #47413A",
"6 	c #37322C",
"7 	c #302923",
"8 	c #27211C",
"9 	c #221D17",
"0 	c #221D18",
"a 	c #201A16",
"b 	c #251F1A",
"c 	c #27211A",
"d 	c #27221B",
"e 	c #322B24",
"f 	c #342C25",
"g 	c #393129",
"h 	c #2D2620",
"i 	c #2B2723",
"j 	c #1F1B16",
"k 	c #1A1510",
"l 	c #15100D",
"m 	c #120F0C",
"n 	c #110F0C",
"o 	c #0F0D09",
"p 	c #0F0C09",
"q 	c #15110D",
"r 	c #191511",
"s 	c #201B16",
"t 	c #3C342B",
"u 	c #332D26",
"v 	c #29241E",
"w 	c #241E1A",
"x 	c #16120E",
"y 	c #0D0A08",
"z 	c #070504",
"A 	c #050403",
"B 	c #030202",
"C 	c #020201",
"D 	c #030302",
"E 	c #060504",
"F 	c #070604",
"G 	c #181411",
"H 	c #26211C",
"I 	c #373029",
"J 	c #433A33",
"K 	c #191410",
"L 	c #0F0D0A",
"M 	c #020101",
"N 	c #010000",
"O 	c #010100",
"P 	c #000000",
"Q 	c #010101",
"R 	c #12100D",
"S 	c #1A1612",
"T 	c #342D25",
"U 	c #3E3931",
"V 	c #36312A",
"W 	c #171310",
"X 	c #0E0B09",
"Y 	c #040302",
"Z 	c #0C0B08",
"` 	c #1B1713",
" .	c #373026",
"..	c #3E3830",
"+.	c #3D352E",
"@.	c #2B2721",
"#.	c #1B1612",
"$.	c #0C0907",
"%.	c #1D1812",
"&.	c #2A241D",
"*.	c #352E28",
"=.	c #100D0A",
"-.	c #0E0B08",
";.	c #1E1914",
">.	c #312923",
",.	c #443B30",
"'.	c #322C26",
").	c #251E19",
"!.	c #16130F",
"~.	c #302A24",
"{.	c #1E1A16",
"].	c #020202",
"^.	c #0C0906",
"/.	c #1E1814",
"(.	c #3F3730",
"_.	c #2B251F",
":.	c #18130F",
"<.	c #2D2821",
"[.	c #060503",
"}.	c #130F0C",
"|.	c #110D0A",
"1.	c #201B15",
"2.	c #3E362E",
"3.	c #211D18",
"4.	c #3A3229",
"5.	c #0D0A07",
"6.	c #110D0B",
"7.	c #231F1A",
"8.	c #352F27",
"9.	c #0F0C08",
"0.	c #342E28",
"a.	c #231C17",
"b.	c #28251E",
"c.	c #322A23",
"d.	c #362E27",
"e.	c #2A251F",
"f.	c #060403",
"g.	c #1A1511",
"h.	c #2D271F",
"i.	c #413B32",
"j.	c #0F0C0A",
"k.	c #231E19",
"l.	c #161410",
"m.	c #181613",
"n.	c #393028",
"o.	c #423B34",
"p.	c #40372D",
"q.	c #100E0B",
"r.	c #373027",
"s.	c #2A241E",
"t.	c #27211B",
"u.	c #363028",
"v.	c #191512",
"w.	c #0E0C0A",
"x.	c #0B0806",
"y.	c #171410",
"z.	c #231E18",
"A.	c #3D352D",
"B.	c #39332D",
"C.	c #2F2822",
"D.	c #1E1913",
"E.	c #201E18",
"F.	c #16120D",
"G.	c #181511",
"H.	c #3B332C",
"I.	c #28221C",
"J.	c #332F27",
"K.	c #3F372D",
"L.	c #3B352D",
"M.	c #362F26",
"N.	c #3A352F",
"O.	c #3C342D",
"P.	c #393228",
"Q.	c #3E372F",
"R.	c #483F36",
"    . + @ # $ .   % +     .   .       . $ & * & . + + .     = - ",
"    ; . . # -     . > * , ' ) ! ~ ' ' ,   # .   + $ . . + . . { ",
"+ .   .   #     .   ] ^ / ( _ : < [ ( } | 1 2 .   3   &   4 .   ",
"=   . # 5 + .   1 | ( 6 7 8 9 0 a b c d e f g '   .   #   . + . ",
"  > #   &   . g f h i j k l m n o p q r s 8 h ( g 4           . ",
"+   .   # { t u v w x y z A B C C D E F y G s H I J . .   # # - ",
"    . #   g : 8 K L A M N O O P P O O Q C F R S v T |   - #   > ",
".   # . U V H W X B O O P P P P P P P P O O Y Z ` 8  ...+     . ",
"  . * 1 +.@.#.Z Y O P P P P P P P P P P P P O Y $.%.&.( 1       ",
". . 3 J *.w =.Y O P P P P P P P P P P P P P P O B -.;.>.| ,.. . ",
"3 - 1 '.).!.F O P P P P P P P P P P P P P P P P O A x ).f '   ; ",
"  . $ ~.{.y ].O P P P P P P P P P P P P P P P P O C ^./.I J   . ",
"  ' (._.:.F O P P P P P P P P P P P P P P P P P P O F r <.} 1 . ",
"* 1 < ).q A N P P P P P P P P P P P P P P P P P P O [.}.).< 1   ",
"* ' _ b |.D O P P P P P P P P P P P P P P P P P P Q Y p 1.[ ' 5 ",
"# 2.: 0 n ].P P P P P P P P P P P P P P P P P P P P C o 3.: ~ # ",
". 4.< H 5.M P P P P P P P P P P P P P P P P P P P P ].6.7.: } 2 ",
"  1 8.b 9.D N P P P P P P P P P P P P P P P P P P O B |.9 0.' 4 ",
"+ ' ( a.}.A N P P P P P P P P P P P P P P P P P P O A q b.c.' = ",
"  ' d.e.:.f.O P P P P P P P P P P P P P P P P P P O F g.h.(.i.- ",
"= . | e s ^.M O P P P P P P P P P P P P P P P P N C j.k.e g 4 # ",
"$ + ' f i l.A O P P P P P P P P P P P P P P P P O F m.b.f n.# 5 ",
"+ o.  p.>.s q.Y N P P P P P P P P P P P P P P O D =.;.h t     . ",
"  .   1 r.s.#.$.D O P P P P P P P P P P P P N Y $.K t.u.' @ 4 4 ",
".     # J < ).v.w.D O O P P P P P P P P O O Y x.y.z.u A.  # - = ",
"4 ,.#     g : 8 #.-.f.M O O O P P O O O M A -.K ).< | # # * % . ",
"# =   .   # g B.C.D.x y F A B C M B z F ^.x s @.< g     - >     ",
"=   4   + . . g ( >.b.E.g.F.-.-.-.-.q G.s 8 *.H.g 4           ; ",
". . *         # ' | ( e _.8 9 9 H 9 8 I.J.( g '   & #   . . & * ",
". . . .   #   3     K.| L.< M.: N.O.( P.g 1 .       & . .   . 2 ",
"4   # #       . . .   * , 1 Q.} } , , '   3 & + 4 . . .   #   - ",
"  o.5 -       - .     # # - * * + 5 o.R.  . #   # . * { # # ,.,."};
