/* XPM */
static char *floor[] = {
/* columns rows colors chars-per-pixel */
"32 32 221 2 ",
"   c #3A3127",
".  c #393129",
"X  c #3A3028",
"o  c #3A3029",
"O  c #3A3129",
"+  c #3A322A",
"@  c #3B322A",
"#  c #3B332A",
"$  c #3B322B",
"%  c #3A332B",
"&  c #3B332B",
"*  c #3C332A",
"=  c #3B342A",
"-  c #3B342B",
";  c #3B352B",
":  c #3C342B",
">  c #3D342B",
",  c #3B332C",
"<  c #3C332C",
"1  c #3C332D",
"2  c #38342C",
"3  c #3A342C",
"4  c #3B342C",
"5  c #3B342D",
"6  c #3B352D",
"7  c #3A342E",
"8  c #3C342C",
"9  c #3D342C",
"0  c #3C352C",
"q  c #3D352C",
"w  c #3C342D",
"e  c #3C352D",
"r  c #3D352D",
"t  c #3E352C",
"y  c #3F352C",
"u  c #3E342D",
"i  c #3E352D",
"p  c #3F352D",
"a  c #3D362C",
"s  c #3C362D",
"d  c #3D362D",
"f  c #3C372D",
"g  c #3E362C",
"h  c #3F362C",
"j  c #3E362D",
"k  c #3F362D",
"l  c #3F372D",
"z  c #3C352E",
"x  c #3D352E",
"c  c #3E352E",
"v  c #3C362E",
"b  c #3D362E",
"n  c #3D372E",
"m  c #3C362F",
"M  c #3D362F",
"N  c #3D372F",
"B  c #3E362E",
"V  c #3F362E",
"C  c #3E372E",
"Z  c #3F372E",
"A  c #3E362F",
"S  c #3E372F",
"D  c #3F372F",
"F  c #3E382E",
"G  c #3F382E",
"H  c #3E382F",
"J  c #3F382F",
"K  c #3F392F",
"L  c #3D3730",
"P  c #3E3730",
"I  c #3F3730",
"U  c #3D3831",
"Y  c #3E3830",
"T  c #3F3830",
"R  c #3F3930",
"E  c #3E3831",
"W  c #3F3831",
"Q  c #3F3931",
"!  c #3F3932",
"~  c #3F3A32",
"^  c #40362D",
"/  c #41362D",
"(  c #40372D",
")  c #41372D",
"_  c #43372D",
"`  c #41362E",
"'  c #40372E",
"]  c #41372E",
"[  c #40372F",
"{  c #41372F",
"}  c #42372E",
"|  c #42372F",
" . c #40382E",
".. c #41382E",
"X. c #40382F",
"o. c #41382F",
"O. c #42382E",
"+. c #42392F",
"@. c #403730",
"#. c #403830",
"$. c #413830",
"%. c #403930",
"&. c #413930",
"*. c #403831",
"=. c #413831",
"-. c #403931",
";. c #413931",
":. c #423830",
">. c #423930",
",. c #433930",
"<. c #423931",
"1. c #413A30",
"2. c #403A31",
"3. c #413A31",
"4. c #413B31",
"5. c #423A30",
"6. c #423A31",
"7. c #433A31",
"8. c #423B31",
"9. c #433B31",
"0. c #403832",
"q. c #403932",
"w. c #413932",
"e. c #423932",
"r. c #423933",
"t. c #403A32",
"y. c #413A32",
"u. c #413B32",
"i. c #403A33",
"p. c #413A33",
"a. c #413B33",
"s. c #423A32",
"d. c #433A32",
"f. c #423B32",
"g. c #433B32",
"h. c #423A33",
"j. c #433A33",
"k. c #423B33",
"l. c #433B33",
"z. c #443A30",
"x. c #443B30",
"c. c #443A31",
"v. c #443B32",
"b. c #453B32",
"n. c #443B33",
"m. c #413C32",
"M. c #423C33",
"N. c #433C33",
"B. c #433D33",
"V. c #443C33",
"C. c #453C33",
"Z. c #443D33",
"A. c #413B34",
"S. c #423B34",
"D. c #433B34",
"F. c #413C34",
"G. c #423C34",
"H. c #433C34",
"J. c #423D34",
"K. c #433D34",
"L. c #423C35",
"P. c #433C35",
"I. c #433D35",
"U. c #433D36",
"Y. c #423E36",
"T. c #433E36",
"R. c #443C34",
"E. c #453C34",
"W. c #443D34",
"Q. c #453D34",
"!. c #443C35",
"~. c #443D35",
"^. c #453D35",
"/. c #463D34",
"(. c #463C35",
"). c #463D35",
"_. c #453E34",
"`. c #443E35",
"'. c #453E35",
"]. c #463E34",
"[. c #463E35",
"{. c #463F35",
"}. c #443D36",
"|. c #453D36",
" X c #443E36",
".X c #453E36",
"XX c #443F36",
"oX c #453F36",
"OX c #453E37",
"+X c #443F37",
"@X c #463E36",
"#X c #473E36",
"$X c #463F36",
"%X c #473F36",
"&X c #463F37",
"*X c #483E34",
"=X c #483E35",
"-X c #483F36",
";X c #483F37",
":X c #463F38",
">X c #454037",
",X c #464037",
"<X c #474037",
"1X c #484037",
"2X c #464038",
"3X c #474038",
"4X c #464039",
"5X c #474039",
"6X c #464139",
"7X c #474139",
"8X c #46413A",
"9X c #47413A",
"0X c #484039",
"qX c #484139",
"wX c #484239",
"eX c #494239",
"rX c #48413A",
"tX c #48423A",
"yX c #49423A",
"uX c #48423B",
"iX c #48433B",
/* pixels */
"$.$.9 T 1X#X5 9 $.- T $.$.9 $.9 $.$.$.9 5 M.J.M.9 T T 9 $.$.V. .",
"$.$.iX9 9 #X .$.$.9 ] J.#X$.iX#XM.$.$.#X$.#X9 $.T 5 9 9 T 9 9 > ",
"T 9 $.9 $.#X$.$.9 $.J S.T $.9 9 $.$.$.$.$.9 O 9 $.P $.M.$.J 9 $.",
"V.$.9 #X9XT 9 $.9 $.$.9X#X$.9 $.9 $. .- $.9 9 $.$.9 $.#X$.9 T 9 ",
"$.] #X$.M.$.9 9 9 9 9XT ] ] V.iXM.9 $.T $.$.9 $.9 J $.$.$.$.$.9 ",
"T $.9 $.#X>  .T T #X$.T 9 ] @. .$.$.J.$.$.#X$.5 V.#X9 9 $.#X#X .",
"$.$.9 #X$.9 9 $.9 T O 9 9 $.T * 9 P #X1X$.#X9XT V. .$.$. .#X$.] ",
"9 $.#X9 J.J.T P #X9 $.J 9 $.$.J $.T 9 $.T P M.M.#X$.x.M.T $.$.9 ",
"$.9 J.9 #XJ.$.J.V.J #X#X9 J M.#X#X$.9 #XJ.M.$.#X$.x. .$.9 $.$.$.",
"9 9 P #X#X#X$.#X#X$.J V.9 S.iX#XM.9 9 T #X] 9 $.5 9 9 $.$.x.9 9 ",
"P  .9 5 9 M.#X$.$.#X$.V.9 9 $.#XJ.9 > 9 $.$.] ] S.9 $.9 9 $.$.iX",
"$.9 T P P T 9X$.#X9 9 9 $.T $.9X#X] $.P $.S.$.] $.$.9 9 #X#X$.9 ",
"$.$.#X$.9 $.#X$.] 9 9 9 $.9 9 9 9 9 ] T $.#X#XO 9 #X$.J V.$.9 9 ",
"J.9 9 9 $.9 9 9XM.J.#X .9 9 9 9 $.$.9 $.J - ] J  .V.V.9 9 9 9 $.",
"J.$.9 $.$.T $.J.#X$.O $.$.$.$.9 $.x.#X$.J.9  .J.$.9X,X9 O $.$.9X",
"#X$.9 $.iX9X$.9 $.9 , $.$.$.#X9 T $.] O $.,X$.9 $.9 #XM.T 9 M.#X",
"9 > $.#X9 9 > $.J.9 9 $.$.#XJ.9 $.#X$.M.$.J.J > #X9 9X#XM.9 9 O ",
"$.9 J $.> J 9 $.$.9 J #X$.9 9 $.] T $.#XT 9 $. .9 $.9 $.9 P $.J ",
"T $.$.O 9 $.9 J $.$.#XJ.#X] 9 $.$.$.J.J.9 M.#XS.$.J $.$.J.O $.V.",
"$.$.9 T 9 O $. .$.M.T $.9 9 9 J.-X9 9 9 9 9 $.9 9 J $.$.x.#XM. .",
"V.9 $.$.$.9 9 T iX#XP 9 9 9 $.$.9 T $.#XM.> 9 9 9 M.#X#X$.9 J #X",
"5 T $.9 9XJ.9 $.$.9 T 9X$.$.9 T J.$.J.#X$.9 5 T  .#X9XJ.9 O #X9X",
"T S.$.x.$.$.J.#X9 V.9 $.$.T 9 #X$.9 $.#X$.$. .T $.$.9 9  .$.$.9 ",
"$.9 $.9  .$.$.$.$. .9 $.$.T S.$.J.1XJ $.$.$.9 V.$.9 9 J $.1XJ J ",
"9 $.$.#X#X$.9 S.9X$.-XJ - $.$.J.J.$.T $.$.J.M.9 T - J $.$.#X .V.",
"J x.#X$.$.9 9 $.$.9 ] 9 $. .] iXM.$.D.J.@.9 9 9 9 $.$.#X#XJ.- 9 ",
"#XV.$.9 $.#X9 :X#X> $.$.$.] ] $.9 , #XT 9 $.$.J.$.9 $.$. .] $.$.",
"V.$.J $.T 9 9 9 $.$.J.J.$.x.O  .$.O $.P $.$.#XV.9 J $.$.$.$.$.iX",
"9 9 J.$.$.$.$.#X$.$.$.$.$.$.9  .#X9 $.9 J.$.9 $.$.M.#X$.9 9 M.J.",
"9 9 9 9 $.#X$.P $.$. .$.M.9  .9 9X#X$. .9 9 9 $.$.$.M.9 9 $.9 O ",
"J $.#X#X$.$.$.9 9 9 $.J.#X9 T 9 9 #X#X$.$.P M.T J 9 9 9 $.#X$. .",
"$.S.9X .$.$.$. .9 $.$.#X#X .J.J.T 9XS.-X$.9 #X$.#X9 J.> #X#Xx.x."
};
