/* XPM */
static char * player_xpm[] = {
"32 32 285 2",
"  	c #413830",
". 	c #3D342C",
"+ 	c #3F3830",
"@ 	c #484037",
"# 	c #473E36",
"$ 	c #3B342D",
"% 	c #3B342B",
"& 	c #423C33",
"* 	c #423D34",
"= 	c #443C33",
"- 	c #40382E",
"; 	c #48433B",
"> 	c #41372E",
", 	c #3D342B",
"' 	c #3F382F",
") 	c #423B34",
"! 	c #3A3129",
"~ 	c #3E3730",
"{ 	c #47413A",
"] 	c #403730",
"^ 	c #3C332A",
"/ 	c #453C34",
"( 	c #342D26",
"_ 	c #41382E",
": 	c #463D36",
"< 	c #3C362A",
"[ 	c #3B342A",
"} 	c #40372F",
"| 	c #38322A",
"1 	c #423B32",
"2 	c #3C332B",
"3 	c #362E27",
"4 	c #3C362C",
"5 	c #453E31",
"6 	c #382F28",
"7 	c #443B30",
"8 	c #453D35",
"9 	c #2E2821",
"0 	c #363028",
"a 	c #3B322A",
"b 	c #463D35",
"c 	c #3D3830",
"d 	c #372F27",
"e 	c #3A3229",
"f 	c #3D342D",
"g 	c #322A23",
"h 	c #342F25",
"i 	c #544D3E",
"j 	c #4F4734",
"k 	c #3B332C",
"l 	c #373126",
"m 	c #3B3226",
"n 	c #3F372B",
"o 	c #3C332C",
"p 	c #38332E",
"q 	c #504D4B",
"r 	c #555352",
"s 	c #302B26",
"t 	c #352E28",
"u 	c #3D352B",
"v 	c #3E372C",
"w 	c #3D362A",
"x 	c #443D30",
"y 	c #4D4738",
"z 	c #4B4437",
"A 	c #4F4735",
"B 	c #5A523D",
"C 	c #6E634B",
"D 	c #847A60",
"E 	c #D1D0CE",
"F 	c #FAFAFA",
"G 	c #FCFCFC",
"H 	c #EAE9E8",
"I 	c #938B79",
"J 	c #5C533E",
"K 	c #58503C",
"L 	c #4B4333",
"M 	c #423C2F",
"N 	c #3F392B",
"O 	c #443D31",
"P 	c #332B24",
"Q 	c #39342F",
"R 	c #3C362E",
"S 	c #3F3A30",
"T 	c #696458",
"U 	c #CDCAC3",
"V 	c #C2BEB3",
"W 	c #928769",
"X 	c #C3C0B7",
"Y 	c #F8F8F8",
"Z 	c #FFFFFF",
"` 	c #F1F2F2",
" .	c #D8D8D6",
"..	c #908464",
"+.	c #7D7255",
"@.	c #665C45",
"#.	c #484131",
"$.	c #3B3528",
"%.	c #322C24",
"&.	c #3F372F",
"*.	c #312C25",
"=.	c #333232",
"-.	c #252625",
";.	c #29241F",
">.	c #413A2E",
",.	c #D5D5D4",
"'.	c #E0E1E1",
").	c #C0BCAF",
"!.	c #D3D2CF",
"~.	c #F7F7F7",
"{.	c #E3E4E4",
"].	c #505558",
"^.	c #CECECE",
"/.	c #ADA181",
"(.	c #978A66",
"_.	c #615842",
":.	c #443D2E",
"<.	c #332E26",
"[.	c #413B33",
"}.	c #3B3B3A",
"|.	c #CFD0D1",
"1.	c #A1A4A5",
"2.	c #202324",
"3.	c #3F3B30",
"4.	c #DADADA",
"5.	c #CACCCD",
"6.	c #424649",
"7.	c #A09E98",
"8.	c #C2BFB8",
"9.	c #E4E4E4",
"0.	c #B6B8B9",
"a.	c #434749",
"b.	c #242A2E",
"c.	c #B7B8B8",
"d.	c #AD9F7A",
"e.	c #A2956E",
"f.	c #8A7E5D",
"g.	c #6C6249",
"h.	c #4C4433",
"i.	c #332C23",
"j.	c #433A33",
"k.	c #373838",
"l.	c #999E9F",
"m.	c #878C8E",
"n.	c #313537",
"o.	c #101111",
"p.	c #939086",
"q.	c #CACAC9",
"r.	c #A0A1A0",
"s.	c #8E8774",
"t.	c #9E9784",
"u.	c #D0CFCF",
"v.	c #D4D4D4",
"w.	c #939697",
"x.	c #A5A7A8",
"y.	c #B0A999",
"z.	c #AB9C74",
"A.	c #A2946E",
"B.	c #897D5D",
"C.	c #4B4433",
"D.	c #362F25",
"E.	c #443E38",
"F.	c #312D29",
"G.	c #444849",
"H.	c #4E5457",
"I.	c #2E3335",
"J.	c #0F1112",
"K.	c #4B4639",
"L.	c #988E73",
"M.	c #978C71",
"N.	c #A89C7C",
"O.	c #AA9C78",
"P.	c #A69B7E",
"Q.	c #BAB4A5",
"R.	c #BBB6A8",
"S.	c #ACA289",
"T.	c #A69871",
"U.	c #948764",
"V.	c #7B7053",
"W.	c #5F5640",
"X.	c #423B2C",
"Y.	c #393129",
"Z.	c #2A2827",
"`.	c #292C2E",
" +	c #1C1F21",
".+	c #090A0A",
"++	c #24221A",
"@+	c #6F664C",
"#+	c #85795B",
"$+	c #958865",
"%+	c #A1946D",
"&+	c #A89972",
"*+	c #A99B73",
"=+	c #A89A73",
"-+	c #A59770",
";+	c #9C8F6A",
">+	c #8E8261",
",+	c #7A6F53",
"'+	c #625943",
")+	c #494231",
"!+	c #383127",
"~+	c #3A342B",
"{+	c #372F28",
"]+	c #27231E",
"^+	c #1C1815",
"/+	c #120F0C",
"(+	c #302D26",
"_+	c #4D4634",
":+	c #6F654B",
"<+	c #7B7054",
"[+	c #84785A",
"}+	c #877C5C",
"|+	c #867B5B",
"1+	c #817557",
"2+	c #766C50",
"3+	c #4B4533",
"4+	c #564E3B",
"5+	c #463E2E",
"6+	c #393327",
"7+	c #332C24",
"8+	c #3D372E",
"9+	c #39332C",
"0+	c #3C3832",
"a+	c #3A342A",
"b+	c #3C3529",
"c+	c #403A2B",
"d+	c #484030",
"e+	c #504836",
"f+	c #564D3A",
"g+	c #574F3B",
"h+	c #514B37",
"i+	c #4B4430",
"j+	c #44442A",
"k+	c #4F5029",
"l+	c #515331",
"m+	c #383225",
"n+	c #342D25",
"o+	c #3A312A",
"p+	c #38322B",
"q+	c #3E3930",
"r+	c #463E32",
"s+	c #4C4638",
"t+	c #4A4335",
"u+	c #433D2F",
"v+	c #40392C",
"w+	c #566B38",
"x+	c #6D8C40",
"y+	c #6D8341",
"z+	c #6B8642",
"A+	c #6C8545",
"B+	c #485531",
"C+	c #37312A",
"D+	c #3F382E",
"E+	c #3B332B",
"F+	c #3E382E",
"G+	c #534C3E",
"H+	c #5A5244",
"I+	c #524B3D",
"J+	c #586441",
"K+	c #729B48",
"L+	c #649145",
"M+	c #75A15E",
"N+	c #6EA056",
"O+	c #597942",
"P+	c #3A342C",
"Q+	c #3F362E",
"R+	c #3C352F",
"S+	c #39312A",
"T+	c #39352C",
"U+	c #3E372F",
"V+	c #576E3D",
"W+	c #76A060",
"X+	c #6F8F4F",
"Y+	c #6A8E4F",
"Z+	c #3B3E2B",
"`+	c #423A32",
" @	c #483F36",
".@	c #413D34",
"+@	c #413C33",
"@@	c #55683F",
"#@	c #5B693D",
"$@	c #485337",
"%@	c #3F3931",
"&@	c #433B34",
"*@	c #463F38",
"    . + @ # $ .   % +     .   .       . $ & * & . + + .     = - ",
"    ; . . # -     . > * #   ; # &     #   # .   + $ . . + . . , ",
"+ .   .   #     .   ' ) +   . .           . ! .   ~   &   ' .   ",
"=   . # { + .   .     { #   .   .   - %   . .     .   #   . + . ",
"  > #   &   . . . . { + > > = ; & .   +     .   . '           . ",
"+   .   # , - + + #   + . > ] -     *     #   $ = # . .   # # - ",
"    . #   . .   . + ! . .   + ^ . ~ # @   # { + = -     - #   > ",
".   # . * * + ~ # .   ' .     '   + .   + ~ & & / ( _ & +     . ",
"  . * . # *   * = ' # # . ' & # #   . # * &   : ( < [   .       ",
". . ~ # # #   # # } | 1 . ) ; # & . . + # > 2 3 4 5 6     7 . . ",
"~ - . $ . & #     8 9 0 a .   b c d e .   f g h i j k . .     ; ",
"  . + ~ ~ + {   # a l m n | o p q r s t u v w x y z 6 . # #   . ",
"    #   .   #   > ! < A B C D E F G H I J K L M N O o ' =   . . ",
"* . . .   a P Q R S T U V W X Y Z F `  ...+.@.#.$.%.&.. . . .   ",
"*   .     *.=.-.;.>.,.Z '.).!.~.Z {.].^./.(.+._.:.<.[.. !     { ",
"#   .   ; }.|.1.2.3.4.5.6.7.8.9.0.a.b.c.d.e.f.g.h.i.j.& + . & # ",
". ,   # . k.l.m.n.o.p.q.r.s.t.u.v.w.x.y.z.A.B.g.C.D.E.# & . . ! ",
"  . '   , F.G.H.I.J.K.L.M.N.O.P.Q.R.S.T.T.U.V.W.X.Y.2   . ~   ' ",
"+     ! . k Z.`. +.+++@+#+$+%+&+*+=+-+;+>+,+'+)+!+~+    * !   = ",
"    . + . ! {+]+^+/+(+_+W.:+<+[+}+|+1+2+3+4+5+6+7+8+    7 # & - ",
"= .       . . 9+0+$ a+b+c+d+e+f+g+h+i+j+k+l+m+n+o+& # #   . ' # ",
"$ +   . { * .     . p+q+r+s+t+u+v+w+x+y+z+A+B+C+D+# { * . ! # { ",
"+ )   7     * # . = E+o {+F+G+H+I+J+K+L+M+N+O+P+    . . -     . ",
"  .   . -         - . } Q+$ R+S+T+U+V+W+X+Y+Z+`+  . . '   @ ' ' ",
".     # #   . ) {    @' %     .@+@} 8+@@#@$@%@. + % '     # - = ",
"' 7 #     . .     . > .   - > ; &   &@* ] . . . .     # # * % . ",
"# =   .   # . *@# ,       > >   . k # + .     *   .     - >     ",
"=   '   + . . .     * *   7 ! -   !   ~     # = . '           ; ",
". . *         #             . - # .   . *   .     & #   . . & * ",
". . . .   #   ~     -   & . - . { #   - . . .       & . .   . ! ",
"'   # #       . . .   * # . + . . # #     ~ & + ' . . .   #   - ",
"  ) { -       - .     # # - * * + { )  @  . #   # . * , # # 7 7 "};
