/* XPM */
static char *wall[] = {
/* columns rows colors chars-per-pixel */
"32 32 136 2 ",
"   c #373534",
".  c #383735",
"X  c #3B3936",
"o  c #3D3C3A",
"O  c #403F3D",
"+  c #42403E",
"@  c #48443F",
"#  c #464341",
"$  c #494744",
"%  c #4B4946",
"&  c #4E4B49",
"*  c #514F4C",
"=  c #54504D",
"-  c #58544F",
";  c #565350",
":  c #595652",
">  c #5D5955",
",  c #5B5B5C",
"<  c #625E5A",
"1  c #646565",
"2  c #696562",
"3  c #6D6965",
"4  c #666768",
"5  c #676868",
"6  c #6C6C6C",
"7  c #726F6D",
"8  c #6F6F70",
"9  c #6F7070",
"0  c #747474",
"q  c #797674",
"w  c #7C7977",
"e  c #777778",
"r  c #777878",
"t  c #7C7C7C",
"y  c #817E7C",
"u  c #83817E",
"i  c #7F7F80",
"p  c #7F8080",
"a  c #838484",
"s  c #848484",
"d  c #858484",
"f  c #848485",
"g  c #848585",
"h  c #858585",
"j  c #858586",
"k  c #858686",
"l  c #868686",
"z  c #878686",
"x  c #868687",
"c  c #868787",
"v  c #878787",
"b  c #838383",
"n  c #888582",
"m  c #888683",
"M  c #8B8783",
"N  c #888684",
"B  c #898684",
"V  c #8A8785",
"C  c #888683",
"Z  c #8A8885",
"A  c #8B8885",
"S  c #888887",
"D  c #8A8886",
"F  c #8B8886",
"G  c #8C8987",
"H  c #8C8A87",
"J  c #8B8986",
"K  c #868788",
"L  c #878788",
"P  c #878888",
"I  c #888888",
"U  c #898888",
"Y  c #898988",
"T  c #888889",
"R  c #888989",
"E  c #898989",
"W  c #89898A",
"Q  c #898A8A",
"!  c #8A8A8A",
"~  c #8A8A8B",
"^  c #8A8B8B",
"/  c #8B8B8B",
"(  c #8E8C8A",
")  c #8F8D8B",
"_  c #8A8B8C",
"`  c #8B8B8C",
"'  c #8B8C8C",
"]  c #8C8C8C",
"[  c #8C8C8D",
"{  c #8D8D8D",
"}  c #8F8D8C",
"|  c #8D8D8E",
" . c #8E8E8E",
".. c #8F8F8E",
"X. c #8E8E8F",
"o. c #8F8F8F",
"O. c #8B8B8B",
"+. c #908E8C",
"@. c #918E8C",
"#. c #918F8D",
"$. c #928F8D",
"%. c #918F8C",
"&. c #92908E",
"*. c #93908E",
"=. c #93918F",
"-. c #93918E",
";. c #8E8F90",
":. c #8F8F90",
">. c #909090",
",. c #919090",
"<. c #909091",
"1. c #909191",
"2. c #919191",
"3. c #929191",
"4. c #919292",
"5. c #929292",
"6. c #929393",
"7. c #939393",
"8. c #979592",
"9. c #979593",
"0. c #939394",
"q. c #949494",
"w. c #949495",
"e. c #949595",
"r. c #969595",
"t. c #959596",
"y. c #969696",
"u. c #929293",
"i. c #9B9895",
"p. c #9C9A97",
"a. c #9F9C9A",
"s. c #9E9E9E",
"d. c #9C9C9C",
"f. c #A3A09E",
"g. c #A0A0A0",
"h. c #A1A1A1",
/* pixels */
"n ) ) [ #.B *.a.f.*.n n G q b 2 n [ #.y y B w 0 u n O.9.*.u t : ",
"n [ j ` E r y.y.>.` j E t 0 i = t K E j b t r e t E >.y.y.b r + ",
"#.` b E r r >.>.>.E >.>.j b a & n 0.>.j e y j b b b b E [ t b % ",
") [ [ [ y t b E j j E E P t b % G P j r 0 j j r b b r j E b r % ",
") [ [ [ j E j b E E b y.[ b r # y b j b e E j e E [ [ [ [ j r # ",
"w t E [ y.[ r [ >.E >.E [ j 6 # q t y r b E r 6 [ >.[ E E E 0 # ",
"w r r b j r t j b j j t e 4 1 o 0 e r r p r 6 0 b r t t b t 4 o ",
"< # + # # # + O o O O + + X . X - + O + O + o X o o o O # +   X ",
"i.u y B #.B t = 3 y w t Z y 0 w n n w u y n y = w ) Z y Z y w u ",
"E p j E >.y.t o t ;.E >.[ E 0 t b j j a [ E 6 O Z ` [ ' b b b p ",
"E j j E [ B 0 o q j E b j e 0 e j b b j E B 0 + u j [ >.t j j b ",
"b j >.>.b t 0 X q p b t r e [ t t e b j >.s.b + *.0.Z t t E b j ",
"E j [ b b E e + 0 j t b t E E r r j b [ g.g.t + Z 0.E t j j j b ",
"t b b r E [ 0 O u [ b b b E b r r b E y.y.[ 0 O w E [ E E j t j ",
"t r b r r t 5 o 0 t i 0 0 r e 6 0 r P t t e 6 O w a b t t e e b ",
"o o # $ $ + o & < O # + # # O o O + + + + X X O < # # # + o # + ",
"n Z Z b y u b Z y u w y n b 6 = q u b n G y w p.8.Z #.n n b y > ",
"b E [ t b b b 0 5 e t t a b 6 # b ` j j [ ' E [ j [ ;.t b K e # ",
"0 b b b >.j 0 0 6 0 j j b t e $ y p n >.>.>.r b E j t b E e 6 # ",
"y b b b j r 6 b e r j b b j i % t e E y.s.y.t t t t b E j 6 6 # ",
"u b j E j e e r e e r r b j b & q r E y.>.[ t e t b j E b e e # ",
"n t t E j t e r j b Z [ E j t $ 0 b >.>.j >.E b [ E b j j Z 6 + ",
"t e 0 r e 0 0 t t r p p i b 5 o y a b b r E j t e r t j j e , o ",
": o O O O o O O o O O # % $ + # : O + O O # + o + # # + + .   X ",
"y B ) Z Z 0 w > w O.n *.) G n n y t t n #.b 6 = u b u n t 7 w n ",
"t j >.[ e r ' & ) >.[ [ E >.e t [ t E y.>.b 1 $ w t b j b 6 t j ",
"r [ [ t 6 b b & u y.E j E >.t b b j O.[ j 0 4 # w b t r b 6 e b ",
"E y.[ b t b a # w P j [ y.j b E j E E j j 0 5 + t b t j b e t j ",
">.[ [ E b r b + n E >.y.>.b j E j j b E t 7 6 % y K j j b b E E ",
"E O.y.>.t b b % b >.d.E b 6 r [ r b j [ E t e * t t [ E j b t E ",
"0 b j t r t 8 + B E b r e 4 r e 0 t t t 0 6 4 $ 0 t b r t e 6 0 ",
"X O O O # o . # < # O o o X X . O O o .   . X o ; o X o o X . . "
};
